<?xml version="1.0" encoding="utf-8"?>
<!-- Generator: Adobe Illustrator 16.0.0, SVG Export Plug-In . SVG Version: 6.00 Build 0)  -->
<!DOCTYPE svg PUBLIC "-//W3C//DTD SVG 1.1//EN" "http://www.w3.org/Graphics/SVG/1.1/DTD/svg11.dtd">
<svg version="1.1" id="Layer_1" xmlns="http://www.w3.org/2000/svg" xmlns:xlink="http://www.w3.org/1999/xlink" x="0px" y="0px"
	 width="1424px" height="1424px" viewBox="0 0 1424 1424" enable-background="new 0 0 1424 1424" xml:space="preserve">
<g>
	<g>
		<g>
			<path fill="#A975B3" d="M94.712,1366.669L94.712,1366.669c0-12.438,9.327-21.766,21.764-21.766
				c12.438,0,21.765,9.328,21.765,21.766l0,0c0,12.436-9.327,21.764-21.765,21.764
				C104.039,1388.433,94.712,1379.104,94.712,1366.669z"/>
			<path fill="#A975B3" d="M215.97,1312.259h48.192c12.437,0,21.764,3.107,27.982,9.326c4.663,4.664,7.772,10.883,7.772,18.656l0,0
				c0,12.436-7.772,20.209-15.546,24.873c12.437,4.664,21.765,12.436,21.765,26.428l0,0c0,18.654-15.546,29.537-40.42,29.537H215.97
				V1312.259z M261.053,1358.896c12.437,0,20.209-4.664,20.209-13.992l0,0c0-7.771-6.218-13.99-18.654-13.99h-27.982v29.537h26.428
				V1358.896z M265.716,1405.532c12.437,0,20.21-4.662,20.21-15.545l0,0c0-9.328-7.773-13.992-21.764-13.992h-29.537v29.537H265.716
				z"/>
			<path fill="#A975B3" d="M366.764,1312.259h17.101l48.192,108.82h-20.209l-10.883-26.428h-51.301l-10.883,26.428h-20.209
				L366.764,1312.259z M393.192,1379.104l-18.655-43.527l-18.655,43.527H393.192L393.192,1379.104z"/>
			<path fill="#A975B3" d="M439.83,1368.224L439.83,1368.224c0-31.092,23.318-55.965,55.965-55.965
				c20.209,0,32.646,6.217,41.974,17.1l-12.437,13.992c-9.328-7.773-18.655-13.992-31.092-13.992
				c-20.21,0-35.756,17.1-35.756,38.865l0,0c0,21.764,15.546,38.863,35.756,38.863c13.991,0,21.764-6.217,31.092-13.99
				l12.437,12.436c-10.882,12.438-23.318,18.656-43.528,18.656C463.148,1424.188,439.83,1399.315,439.83,1368.224z"/>
			<path fill="#A975B3" d="M557.979,1312.259h18.654v45.082h51.302v-45.082h18.655v108.82h-18.655v-45.084h-51.302v45.084h-18.654
				V1312.259z"/>
			<path fill="#A975B3" d="M676.127,1312.259h80.838v17.1h-62.184v27.982h54.411v17.1h-54.411v29.537h62.184v17.102h-80.838
				V1312.259z"/>
			<path fill="#A975B3" d="M780.284,1312.259h18.654v91.719h57.52v17.102h-76.174V1312.259z"/>
			<path fill="#A975B3" d="M865.786,1368.224L865.786,1368.224c0-31.092,23.318-55.965,57.52-55.965
				c32.646,0,55.965,24.873,55.965,55.965l0,0c0,31.092-23.318,55.965-57.52,55.965
				C889.104,1424.188,865.786,1397.761,865.786,1368.224z M959.06,1368.224L959.06,1368.224c0-21.766-15.545-38.865-37.309-38.865
				c-21.766,0-37.311,17.1-37.311,38.865l0,0c0,21.764,15.545,38.863,37.311,38.863
				C945.069,1405.532,959.06,1388.433,959.06,1368.224z"/>
			<path fill="#A975B3" d="M1002.589,1312.259h48.191c13.992,0,24.875,4.662,31.092,10.881c6.219,6.219,9.328,13.992,9.328,23.318
				l0,0c0,17.102-10.883,27.982-26.428,32.646l29.537,40.42h-21.764l-26.428-35.756l0,0h-23.32v37.311h-18.654v-108.82H1002.589z
				 M1050.78,1366.669c13.992,0,21.766-7.773,21.766-18.656l0,0c0-10.881-7.773-18.654-21.766-18.654h-27.982v35.756h27.982
				V1366.669z"/>
			<path fill="#A975B3" d="M1133.3,1405.532l10.883-13.99c10.883,9.328,20.209,13.99,34.201,13.99
				c12.436,0,18.654-6.217,18.654-13.99l0,0c0-7.773-4.664-12.438-24.873-17.102c-23.318-6.217-35.756-12.436-35.756-32.645l0,0
				c0-18.656,15.547-31.092,37.311-31.092c15.545,0,27.982,4.664,38.865,13.99l-10.883,13.992
				c-9.328-7.773-20.209-10.883-29.537-10.883c-10.883,0-17.1,6.219-17.1,12.438l0,0c0,7.771,4.662,12.436,26.428,17.1
				c23.318,6.219,34.201,13.992,34.201,31.092l0,0c0,20.209-15.547,32.646-38.865,32.646
				C1161.282,1422.634,1145.737,1417.97,1133.3,1405.532z"/>
			
				<text transform="matrix(1 0 0 1 1094.3105 1421.3672)" fill="#A975B3" font-family="'HelveticaNeue-LightCond'" font-size="164.3783">‘</text>
			<path fill="#A975B3" d="M1285.759,1366.669L1285.759,1366.669c0-12.438,9.328-21.766,21.764-21.766
				c12.438,0,21.766,9.328,21.766,21.766l0,0c0,12.436-9.328,21.764-21.766,21.764
				C1295.087,1388.433,1285.759,1379.104,1285.759,1366.669z"/>
		</g>
	</g>
	<path fill="#A975B3" d="M1186.147,77.917C1078.882-24.686,971.614,3.297,966.952,3.297l-6.219,1.554l-3.109,4.664
		c-1.555,3.109-198.986,265.834-345.117,418.183C467.93,578.494,177.223,791.472,175.668,793.026
		c-15.546,18.654-27.982,54.41,0,107.266c17.101,34.201,52.856,74.621,96.385,110.377c66.847,54.41,119.703,82.393,163.231,82.393
		c24.873,0,45.083-9.328,59.074-27.982c1.554-1.555,102.603-172.559,279.824-377.764l326.463,314.026V859.874h133.695
		L901.659,552.066c192.768-188.104,346.672-256.507,348.227-258.062l6.219-3.109l1.555-6.218
		C1260.769,280.013,1291.86,183.629,1186.147,77.917z M477.258,1029.323c-4.664,12.438-9.328,17.1-10.883,18.654
		c-9.327,9.328-18.654,13.992-32.646,13.992c-34.201,0-83.948-26.428-143.022-74.621c-40.419-32.645-71.511-68.4-87.057-99.492
		s-17.101-55.965-3.109-73.066c1.555-1.555,3.109-3.109,4.664-4.664c3.109-1.555,6.219-4.662,10.882-6.217
		c6.219-3.109,13.991-4.664,23.319-4.664c32.646,0,80.838,24.873,135.249,69.955c40.419,32.646,73.065,69.957,90.166,102.604
		C474.148,987.349,483.476,1009.114,477.258,1029.323z M492.804,954.704c-18.655-37.311-54.411-76.176-97.939-113.486
		c-49.746-41.973-96.384-68.4-132.14-74.619c87.057-63.738,236.297-178.778,340.454-279.826
		c26.429,3.109,66.848,37.311,90.166,60.629c46.638,45.083,52.856,99.493,57.52,115.039
		c-116.594,133.695-200.541,253.398-245.624,321.8C503.686,976.468,499.021,965.585,492.804,954.704z M1229.677,266.022
		c-32.646,15.546-164.787,83.947-332.682,242.516c-15.545-29.537-32.646-60.629-66.848-90.166
		c-49.746-43.528-83.946-48.192-107.266-59.074C839.476,225.603,957.624,67.035,982.497,37.498
		c20.209-3.109,99.494-10.882,178.777,68.402C1237.448,177.411,1232.786,245.813,1229.677,266.022z"/>
</g>
</svg>
