<?xml version="1.0" encoding="utf-8"?>
<!-- Generator: Adobe Illustrator 16.0.0, SVG Export Plug-In . SVG Version: 6.00 Build 0)  -->
<!DOCTYPE svg PUBLIC "-//W3C//DTD SVG 1.1//EN" "http://www.w3.org/Graphics/SVG/1.1/DTD/svg11.dtd">
<svg version="1.1" id="Layer_1" xmlns="http://www.w3.org/2000/svg" xmlns:xlink="http://www.w3.org/1999/xlink" x="0px" y="0px"
	 width="1424px" height="1424px" viewBox="0 0 1424 1424" enable-background="new 0 0 1424 1424" xml:space="preserve">
<g>
	<g>
		<path fill="#FFC62B" d="M209.375,1368.162L209.375,1368.162c0-12.45,9.338-21.788,21.788-21.788s21.788,9.338,21.788,21.788l0,0
			c0,12.45-9.338,21.788-21.788,21.788S209.375,1380.612,209.375,1368.162z"/>
		<path fill="#FFC62B" d="M330.766,1313.692h20.231l32.683,51.357l32.682-51.357h20.231v108.939h-18.675v-77.813l-34.238,51.357l0,0
			l-34.238-51.357v77.813h-18.676V1313.692z"/>
		<path fill="#FFC62B" d="M503.514,1313.692h18.675l48.245,108.939h-20.231l-12.45-24.9h-51.357l-10.895,24.9h-20.231
			L503.514,1313.692z M531.526,1380.612l-18.676-43.576l-18.675,43.576H531.526z"/>
		<path fill="#FFC62B" d="M579.771,1407.069l10.894-14.007c10.894,9.338,20.231,14.007,34.238,14.007
			c12.45,0,18.676-6.225,18.676-14.007l0,0c0-7.781-4.669-12.45-24.901-17.119c-23.344-6.225-35.794-12.45-35.794-32.682l0,0
			c0-18.675,15.563-31.126,37.351-31.126c15.563,0,28.014,4.669,38.907,14.007l-10.894,14.007
			c-9.338-7.781-20.232-10.895-29.57-10.895c-10.894,0-17.119,6.226-17.119,12.451l0,0c0,7.781,4.67,12.45,26.457,17.119
			c23.345,6.225,34.238,14.006,34.238,31.125l0,0c0,20.232-15.563,32.682-38.906,32.682
			C607.784,1424.188,592.222,1419.52,579.771,1407.069z"/>
		<path fill="#FFC62B" d="M710.499,1332.368h-34.238v-17.119h88.709v17.119h-34.238v91.82h-18.677v-91.82H710.499z"/>
		<path fill="#FFC62B" d="M785.202,1313.692h80.926v17.119h-62.252v28.013h54.471v17.119h-54.471v29.569h62.252v17.119h-80.926
			V1313.692z"/>
		<path fill="#FFC62B" d="M889.472,1313.692h48.246c14.006,0,24.9,4.669,31.125,10.894c6.225,6.226,9.338,14.007,9.338,23.345l0,0
			c0,17.119-10.895,28.013-26.457,32.682l29.568,40.464h-21.787l-28.014-35.795l0,0h-23.344v37.351h-18.676V1313.692z
			 M936.161,1368.162c14.006,0,21.787-7.781,21.787-18.675l0,0c0-10.895-7.781-18.676-21.787-18.676h-28.014v35.795h28.014V1368.162
			z"/>
		<path fill="#FFC62B" d="M1019.743,1407.069l10.894-14.007c10.895,9.338,20.23,14.007,34.238,14.007
			c12.449,0,18.676-6.225,18.676-14.007l0,0c0-7.781-4.67-12.45-24.9-17.119c-23.346-6.225-35.794-12.45-35.794-32.682l0,0
			c0-18.675,15.562-31.126,37.349-31.126c15.564,0,28.014,4.669,38.908,14.007l-10.895,14.007
			c-9.338-7.781-20.232-10.895-29.568-10.895c-10.895,0-17.119,6.226-17.119,12.451l0,0c0,7.781,4.668,12.45,26.455,17.119
			c23.346,6.225,34.238,14.006,34.238,31.125l0,0c0,20.232-15.563,32.682-38.906,32.682
			C1049.313,1424.188,1033.748,1419.52,1019.743,1407.069z"/>
		<path fill="#FFC62B" d="M1171.371,1368.162L1171.371,1368.162c0-12.45,9.338-21.788,21.787-21.788
			c12.451,0,21.789,9.338,21.789,21.788l0,0c0,12.45-9.338,21.788-21.789,21.788
			C1182.266,1389.95,1171.371,1380.612,1171.371,1368.162z"/>
		
			<text transform="matrix(1 0 0 1 981.292 1417.8721)" fill="#FFC62B" font-family="'HelveticaNeue-LightCond'" font-size="164.3783">‘</text>
	</g>
	<path fill="#FFC62B" d="M1186.049,78.003C1078.666-24.712,971.282,3.301,966.614,3.301l-4.67,1.557l-3.111,4.669
		c-1.557,3.112-199.205,266.125-345.496,418.641c-144.734,150.959-435.76,364.17-437.315,365.727
		c-15.563,18.675-28.014,54.47,0,107.384c17.119,34.238,52.913,74.701,96.489,110.496c66.92,54.47,119.834,82.482,163.41,82.482
		c24.9,0,45.132-9.337,59.139-28.013c1.557-1.557,102.715-172.748,280.131-378.177l325.263,314.369V860.813h133.84L902.806,552.669
		c191.423-188.31,345.495-256.787,348.606-258.343l6.227-3.112l1.555-6.226C1260.75,280.319,1291.877,183.83,1186.049,78.003z
		 M476.384,1030.448c-4.669,12.45-9.338,17.119-10.894,18.676c-9.338,9.338-18.676,14.007-32.683,14.007
		c-34.238,0-84.039-26.457-143.178-74.702c-40.463-32.682-71.589-68.477-87.152-99.602c-15.563-31.126-17.119-56.026-3.112-73.146
		c1.557-1.557,3.112-3.113,4.669-4.669c3.112-1.557,6.226-4.669,10.895-6.226c6.225-3.112,14.006-4.669,23.344-4.669
		c32.682,0,80.927,24.9,135.396,70.033c40.464,32.682,73.146,70.032,90.265,102.715
		C473.271,988.429,482.609,1010.217,476.384,1030.448z M491.947,955.747c-18.676-37.351-54.471-76.258-98.046-113.608
		c-49.802-42.021-96.49-68.477-132.284-74.702c87.151-63.808,236.555-178.973,340.826-280.131
		c26.456,3.112,66.92,37.351,90.265,60.695c46.688,45.132,52.914,99.602,57.582,115.165
		c-116.722,133.84-200.761,253.674-245.893,322.15C502.841,977.535,498.172,966.641,491.947,955.747z M1229.625,266.313
		c-32.682,15.563-164.967,84.04-333.044,242.781c-15.563-29.569-32.682-60.695-66.92-90.265
		c-49.801-43.576-84.039-48.245-107.383-59.139C838.999,225.85,957.276,67.109,982.177,37.539
		c20.232-3.112,99.601-10.894,178.972,68.477C1238.963,177.605,1232.738,246.082,1229.625,266.313z"/>
</g>
</svg>
